<svg xmlns="http://www.w3.org/2000/svg" data-name="Calque 2" viewBox="9.74 13.28 172.95 117.71"><path d="M120.48 36.22c.66.17-1.43-.73-1 .11a2.79 2.79 0 00-1.16-.39c-.49.22.39.73 0 .83-.2-.42-.31.71-.87.46-.31-1-2-.74-2.8-1.15.13 0 .48.58.14.51-.42-.51-.64-.18-1.17-.06.33-.39.59-.92-.11-1.18-.19.6-.24 2.52-1 2.64a.82.82 0 00-.29-.86c.24.59 0 .5-.38.82.4 1.64-2.63 1-3.46 1.84 1.06-.12 1.66-.07 2.15.62-.52.07-1.19 0-1.21.61a1.14 1.14 0 011.51.24c-.19.26-.47.37-.69.14.09.3-.25 1 .12 1 .69-.29.47.59 1 1.06 1 .18 1.41-1.26 2-2.08.4.12.77.26.81.71-.41.09-.8.19-.88.63 0 .59.58-.33.5.19.13.62-.76.1-.71.64.81 0 2.27-.32 2.58-1a43.12 43.12 0 013 4.69 2.12 2.12 0 01.59-1.48 7.07 7.07 0 01-.11-4.38c1.81-.17 1.49.8 3.15.84.15 1.14.14 2.16-.64 2.66 1.32 1 .15 2.92-.22 4.19 1.49-.23.75-2.95 1.71-3.78.18.26.62.3.81.55a4 4 0 01-.63 2.49c.12-.48.24.27.49.19.33-1.41.66-2.81 2-3.09.1.55.81.56 1.13.9a18 18 0 01-2.9 4.06c1.48-.61 1.94-2.35 3-3.38 0 .17.12.21.15.35-.64 1-1.55 1.6-2 2.75 1.31-.58 1.82-3.45 3.5-2.5-.4.21-.68.54-1 .78.78 0 1-.68 1.72-.75.4.25-.33.49.13.68.06-.15.49-.71.52-.31-.13.51-1.39.69-1.06 1.12a14.57 14.57 0 012.58-1.21c0 .42-.29.51-.38.82.4 0 .74-.32.83.22-.22 0-.17.28-.35.31-.41-.14-.68-.2-1 .12.36 0 .52.16.47.53.4.09.38-.29.85-.12-.64.79-1.09 1.07-.42 1.66-.6.22-1.39.23-1.73.75a4.54 4.54 0 012.19-.06c-.77-.17-.26.63-.53.65-.94-.34-2.08-.2-2.81-1 .2 1.06-.76-.17-.86.29.26.18.36.47.13.68.34-.17.87 0 .5.19 0-.09-.13-.19-.17 0 .46-.06 2.53.46 1.8.93.39.07.62.3 1.17.23.09-.62-.8-.35-.8-.88 1.06-.45 1.55.22 2.2-.22.29 0 .37.31.3.69h-.5c.45 1 0 1.71 0 2.36-.31 0-1.35-.47-1-.06 1 .64-1.23.23-.81-.71a1.5 1.5 0 00-1.19.27c.42 0 .82 0 .82.38 0 .64-.78.32-1 .62.18.59 1.24 1.15.92 1.73.21-.64 1.22 0 1.32.41-.5-.09-.32.59-.7.63.43-.1.73.7 1 .23-.2 0-.39-.08-.31-.36.3 0 1.27.69 1 .22-.36 0-.52-.16-.47-.53.75.07 1 .59 1.46.92-.8-.13-.64.11-.36.49-.32.14-.53-.54-.67 0a6.94 6.94 0 01.81.72 7 7 0 01-2.5-.47c0 .33-.25.32-.37.48.56 0 1.29.9.62 1-.18-.09-.83-.79-.49-.37 0 .34.45.24.31.69-1-.07-1.86.61-2.71.2a8.7 8.7 0 00.41 1.87c.29.11 1-.15 1 .22-.42 0-.82-.07-.86.29.3.35.79.12 1.18.06.09.72.85.83.92 1.57-.39 1.35-.87.5-1.74 1.08 0-.29 1-.43.38-.82-.1.42-.74.24-.87.63-.93-.66-1.05-2-1.52-3.11.17-.17.62 0 .53-.48-.67.57-2.1-2.62-.85.13 0 .47-.63.12-.69.47h.83c0 .42.24.53.29.86-.31.44-1-.6-1.34-.07.39.15.93.58 1.34.24.14.51.55.77.42 1.53-.85.08-.22.16-1 .28.34-.29.14-.8-.47-.69a1.23 1.23 0 01-.26 1.67 1.53 1.53 0 00-.27-1.2c-.44.39.08.74-.07 1.35-.22 0-.25.2-.52.14a1.37 1.37 0 00-.08-1.52c-.28.39-.75-2.44-1-3.42-.21-.78.09-1.28-.17 0a1.07 1.07 0 01.12.85 1 1 0 00-.68.13 2.68 2.68 0 01-.23 1.17c.54-.17.4.28.66.37.1-.24-.15-.88.21-.83 1.41 1.41-.6 3.36-1.09 1.62-.44.24-.3 1.1-.75 1.31 0-.55-.72-2.83-.06-2-.08-.3.26-1-.11-1 0 .18-.3.39-.35.15-.12-.44.56-.89.06-1.17-.2 1.22-.85 2-1 3.65-.42 0-.81-.08-.85.29.53.2.33.44.83 0a.89.89 0 00.14.68c-.9.29-.11 1-.75 1.48 0 .58.45 0 .48.36a1 1 0 00.11 1.18c.3-.06 1.42-.53 2 .11a.74.74 0 00-.37.65c.83.22 1.45 1.46 2.3 1.13-.39-.34-1.07-.43-1.13-1.07.8.39 1.62 1.37 1.84.27a1.19 1.19 0 00.31.52c.63-.51-.63-.77-.1-1.18.34.73.4-.17.85-.3a8.36 8.36 0 011.6 1.6c.27-1 1.18.78 1.68.09a8.27 8.27 0 00-1.13-.9c.33.07.34-.21.52-.31.42.17.79.31 1-.11-.65-.17-.87 0-1.16-.23a.82.82 0 01.38-.83c1 .43-.26.22 0 .51 1.35.22 2.15 0 2.67.47.51-.51-.56-.69-.12-1 .19.28 1 .66 1.18.06-.7.1-.61-.52-1-.72.76-.2 1.28.64 1.67.25-.38-.3.06 0 .33 0-.16-.54.29-.39.37-.65a4.94 4.94 0 01-.77-1.22c.48.06.85 0 1-.29-.21-.18-.61-.19-.65-.53.9-.12 1.74.18 2-.23-.3-.32-.76-.5-1-.9a5.14 5.14 0 012.19.12c.34-.61-.57-1 .71-.81.21-.61-.33-.56-.46-.86.12-.29.8 0 .86-.29-.28-.45-1.05.34-1.16-.4.75.49.64-.75 1.39-.77-.54.51.6.37.67 0-.19 0-.25-.2-.32-.36a2.67 2.67 0 012.49.64 3.45 3.45 0 001.52 3.11 5.38 5.38 0 01-1-3.08c.68.09.49-.77.9-1-.6.49-1.09-.36-1.35-.07.14 0 .48.58.15.51a.83.83 0 01-.83-.37c.21 0 .4 0 .36-.32a8.35 8.35 0 01-1-.39c.35 0-.23-.47.36-.49.13.26.53.27.82.38a5.35 5.35 0 00-1.22-2.42c.52-.3.82.27 1-.28-.25 0-.63 0-.67-.2.69.08 0-.24.21-.67.25-.08.85.24.85-.12-.15-.35-.86-.19-.81-.72 1-.25 1-.85 1.77-1.59-.54-.22-1.06.46-1.35-.07.4.09.39-.28.85-.12-.13-.84-1.19-.84-1.61-1.43a4.16 4.16 0 001.67.26c-.15-.65-.41-.55.22-.83-.42-.27-.93-.45-1-1.06.09-.32.66-.1.54-.65a1.67 1.67 0 01-1.32-.4c.76-.51 1.61-.47.21-.83.16-.29.63-.25.7-.64-.84.1-1.79.35-2-.61.68.37.77-.69.22-1a3.23 3.23 0 011.33.24c.18-.53-.54-.26-.47-.7a1.61 1.61 0 001.56-.76c-.7.07-1.64-.14-.82-.54a15.84 15.84 0 01-2-.44 5.4 5.4 0 011.38-.61c-.23-.8.16-.55.23-1.33-.68 0-1.83.42-2.36 0a1.64 1.64 0 001-.45c-.29-.22-.46-.54-.8-.71a2 2 0 01.57-1.32c-.6-.12-1.42.43-1.85-.1.12-.27.52-.24.7-.46-.42-.55-.66.4-1-.06 0 .79-.55 1-1.23 1.12-.17-.54.28-.4.37-.66-.62-.21-.5.39-1 .29 0-.81.57-1 1.08-1.29 0 .2 0 .4.32.35 0-.57.74-.24 1-.45-.66-.8 1.05-.48.72-.8-.84 0-1-.49-1.83-.44-.2-.54 0-.56.06-1.17a3.36 3.36 0 00-1.22.78.57.57 0 01-.05 1c-.44-.9-1.13.36-1.87.24.07-.34.36-.43.55-.64-.84-.22-1.39.65-2.05.4.49-.41 1.43-.32 1.74-.92-.53-.35-1.58 1-2.22.55a4.84 4.84 0 001.56-.92c-.63 0-1.42.78-2 .22.22 0 .94-.21.52-.3s-.61.38-1 .45c.16-.89 1.11-.9 1.43-1.61-1.3 0-2.08 1.6-2.94 1.53.14-.16.83-.58.38-.82a3.72 3.72 0 01-1.74 1.08c.53-.79 1.27-2 2.43-1.55.57-1.11 1.82-.55 2.93-1.19-2.94-.5-4.57 2.21-7 1.15.54-.48 2.37-.45 2.08-1.24a1.16 1.16 0 01-1.53.25c.17-.35.88-.09 1-.45a3.38 3.38 0 00-2.88.36c.21-.24.63-.68 0-.84a3.36 3.36 0 01-1.2.44c0-.8 1.44-.06 1.4-.94-1.09.36-2.62.37-3.4.67.31-.48.65-.78.39-1.16-.15.38-.65 1.21-1 .73z" fill="#1db3ae" fill-rule="evenodd"/><path d="M163 27.51c-1-.72-2.84-.75-3.79-1.55.07-.08.82-.2.35-.31-.49.14-1.32.54-1.33-.24a1.55 1.55 0 00-1.05.62c.46-.09.31.36.48.53a3.26 3.26 0 01-2.84-.32 1.1 1.1 0 01.86-.46l.37-.07a8.45 8.45 0 01-1 0c-.6 0-1.13-.42-1.49-.42-.5.5-4.24-.19-1.36.27.35.27.43 1.13-.07 1.34-3.44.95-7.38.52-10 1.49-.9.34.41 0 .15.35a7.44 7.44 0 01-2.93 1.36c-.25.38-.91 1.22-1.39.77.17-.59 1.05-.38 1.07-1.13-.46-.49-.46.53-1.19.28-.28-.68.72-.84.23-1.17a1.35 1.35 0 01-1 .62c-.54.54-.57 2.57-1.46 2.11.28-.28.66-1.38.27-1.83-.86 1.24-.71 3.59-2.56 3.73a11.64 11.64 0 001.53-.25c-.06.46-.64.34-.87.62.4.24.83-.33.84 0-.12 1.05-1.56.64-1.93 1.41.94-.08 1.29-.82 2.39-.72-.29.7 1.27 1 1.43 1.76-.76.88-2.77.37-3.76 1 2 .32 3.35-.6 4.52.57 0-.9 1.57-1.09 2.06-.9-.12.3-.87.79-.39 1.16a.46.46 0 01.52-.31c0 .65 1 1.07 1.24 1.92-.19-.06-.59-.71-.83-.21A2.55 2.55 0 01141.1 41a20.45 20.45 0 01-5.1-2.62c-.06-.54.83 0 .7-.64-.13 0-.33 0-.32-.18-.67-.15-.45.68-1 .62-.29-.18-1-.82-1.33-.41.48.42 1.42.42 1.63 1.09h.5c1.47.89 3.77 1.8 4.74 2.61 0 .47-.69 1-.23 1.33.17-.22.19-.62.53-.64.36.26-.17 1.32.44 1.36-.11-.76-.4-1.47.1-2 .72.31 1 1 1.79 1.27-.07-.79-1.11-.71-1.1-1.57 1.17-.91 2.41 0 3.4-.66-.75-.27-1.73-.22-1.47-.92.38.27.91.6.86-.29-.86.11-2.26.56-2.72.53.41-.23.4-.49.54-.65.19.23.63.11.85-.12-.25 0-.63 0-.66-.2s.25-.25 0-.34c-.66.38-1 1.18-1.6 1.6a7.9 7.9 0 01-1.56-2.27c.92.13 1.45 1.46 2.3 1.13-.37-.19-.71-.69-1.45-1.26.54 0 .69.34 1.33.24-.13-.73-1.34-.5-1.8-.93a1.14 1.14 0 00.71-.64c2.65 0 4.37 1.24 6.62 2-.08.39-.21.71-.55.81s-1.29-.37-1.19.28c.4.12 1.23-.15 1.33.24-.23.49 0 .7.29 1 0-1.11.5-.53.9-1.13.11-.52-.27-.61-.11-1.18 1.06.38 2.37 1.38 3.3 1.35-.64-.6-1.76-.76-2.28-1.47.32-.06 1 .28.85-.29-.5-.25-1 .45-1.17-.06 1.74-1.22 5.21-.11 6.7.52-.59 1.35.93 3.67-.57 4.51a1.66 1.66 0 012.47 1c0-.71-1.08-1.72-.22-2.2.22.29.1.88.45 1 .28-.59-.48-1-.1-1.19s1 .33 1.69-.25c-.22.49-.13.62.29.86.48-.41-.17-.52-.11-1 .83-.05 1.66.73 2.16.45-.11-.28-.82 0-.64-.54-.44.1-.79.2-1-.22.53-.06.66.43.85-.13a1.33 1.33 0 01-1-.39c.71-.2-.06-.9.22-1 .2.24.72.2 1.16.23a2.86 2.86 0 00-2.51-.86c.29 0 .29.63 0 .56a10.25 10.25 0 01-1.43-1.34c2.27-.21 3.19 1.45 4.7.08-.36.08-1.39.33-1.67-.09.09-.37.91.08.86-.46-.83-.08-2.05.86-2.52 0 1-.3 1.92-.58 2.9-.86-.5-.43.09-.85-.27-1.35-.23-.16-.82 1-1.2.6 0-.31.56-.08.53-.47-.95.56-2.55.65-2.18-.29-.31.31-1 1.17-1.38.77.39-.72.76-.41 1.07-1.29-.67 0-1.85 2.45-3.15 2.36-.46 0-2-.93-.78-1.05-.3-.06-.87.43-1 0s1.22-.15.7-.47c-1.43-.1-2 .74-3.25.84 0-.21.28-.33-.15-.34a2.73 2.73 0 01-1.2.61c-1 .32-.57-.3-1.23.94.07-.14-.4.5-.54.65-.8-.46-1.7-.82-2.46-1.31.13 0 .33 0 .35-.15a1.14 1.14 0 00-1.15-.57c0 .39-.07.63-.37.66-.32-.47-1.4-.24-1.47-.92.35-.08 1.09.26 1.19-.11-.64-.26-1.54.09-2.17-.45.42-.07.39-.63 1-.45s2.74.89 3.34.51c-.29-.11-1 .15-1-.22 1.26-1.13 3.1-1.88 4.92-.58-.36-.79-2.45-1.4-1.74-2.11-1.56.12-2.14-1.46-4-.88a.82.82 0 01.2-.5c-.51-.15-.35.44-.86.29 0-.17-.12-.2-.15-.34.07-.34.47-.31.54-.65-.46-.44-1.92-.18-1.48-.58a.8.8 0 00-.52.14c-.58.15.47.08.14.52a1.1 1.1 0 01-.84.12c1.4-3 7-2.69 11.11-3.29.37 2.24 5.18.15 5.21 3.3a13.11 13.11 0 01-3.6-2c0 .78.82.76-.06 1.18 1.56.9 3.55.85 4.79 1.76.24-1.44-.63-1.88-.68-3.06.2 0 .47.05.51-.14-.22-.39-.42-.8-.61-1.21 1.91-.83 3.88.35 5.04.37zm4.34-5.43c.73-.67 1.46-2.06 2.29-2.06-.18-.27-.46-.44-.46-.87a1.84 1.84 0 00.9-1c-1.09.88-2.84-.05-3.37 0 .3.32.75.49 1 .89-.32 0-.14.55-.53.48-2 .28-.47 0 .49.36-.62.3-1 .76-.21.83-.88.39-2.51.89-2.61 1.55a6.07 6.07 0 012.93-1.2c-.16.27-.84 1.32-.42 1.02zm-11.29 3.63c.66-.07 1-.18 0 0zm-32.46 28a2.16 2.16 0 01-1.15-.39c0-.24.29-.27.36-.49-1.55-.68-2-1.8-4.13-1.56-.26-.35-.34-.86-.78-1.05-.39.76-1.11-.76-1.46-1.09.44-.16.55.75.83.21a4.47 4.47 0 01-.62-1l1 .05c0-1.12.3-1.16-.42-1.7a.46.46 0 01.52-.31l-.47-.53c-.29-.26-.38-.17-.36.32-.76-.5-1.58.38-2.35-.12.12-.52 1-.21 1.37-.44-.51-.39-1.62.09-2.36 0a7.63 7.63 0 011.1-1.63c-.53.25-1.78-.12-2.41 1-.57-.56-.6-.29-1.16-.39l-.85.12c.51-.17.69.75.3.86-.15-.32-2 .14-.71.63-.66-.34-2.69 1-3-.49 1-.14 1.67.37 2.2-.22-.84-.12.08-.36.19-.5-1 0-2.1-.51-1.78-1.27-.61.17-.5 1.31-1 .62.06.53-.4.64 0 1a35.08 35.08 0 00-4.15 2.13c.44.48 1.61-.68 2-.22 0 .23-.29.26-.36.48.4.24.72-.45.84.05-.44.28-.41 1.08-.91 1.29-.25-.26-.87-1-1.32-.57.7 0 .19.66.47.7.36-.52.77.25.81.54-.61.67-1.1-.35-1.68.08.68.32-.12 1 .6 1.38-.18.34-.87.1-.88.63.42-.09.88-.29.83.38a.82.82 0 00-.86.29c.2 0 .48 0 .49.2a5.52 5.52 0 000 3c0-.22.48-.18.51 0-.37.76.62 2.29 0 2.86-.4-.26-.63-.44-1.16-.23-.35.94.91 1 .42 1.54.57 0 .74-.27 1 .22-.19.39-2.06-.17-1.69.25.52-.05.8.25.47.53a13.39 13.39 0 013 1c-.27.38-.44.35 0 .67-.13.28-1.38.21-1 .45.73 0 1.13-.3 1.33.4-.23.41-1.08.11-1.21.61.73.33 1.39-.16 1.66.43-.07.34-.47.3-.54.64.84 0 1.11-.54 2-.4 0 .45.56.3 1 .73.28-.47.46 0 .71-.64-.16.57.67.25.45.87-.59.74-.83.79-1.42 1.44 1.08-.35 1.52-1.4 2.62-1.72-.11.15-.43.6.14.51 0-.53.41-.72.56-1.14.17.78 0 1.75-.93 1.8-.11.52.33.55.81.55-.07-.79.33-1.06.58-1.49a15.59 15.59 0 01-.12 2.35c1.08-.62.86 1.36 1.63.93-.29-.32 0-.6.22-1 .34 0 .19.47.66.37 0-.32-.17-.38-.14-.68.47-.47.78 0 1.21-.44.7.51.16 1.41.24 1.86 0-.19.27-.17.51-.14.24 1.24-2 2-.85 3.32.24-.5.25-1.26.75-1.47a3.2 3.2 0 00.62 1c.12-.57 1.51.28 1.64.76 0-.32.21-.36.2-.66-.63-.12-.78-.68-1.12-1.07a1.17 1.17 0 01-.36.48c-.82-.94-.59-1.49.79-2.14.42.06.73.93.11 1 .07-.38 0-.63-.3-.69-.45.46.74 1.21 1.13.9a1.84 1.84 0 01.25-1.5c-.47 0-.56-.29-.31-.52-.62-.28-.35.45-.86.29 0-.26-.1-1.12-.06-2 0-.52.38-2.23 0-.67-.45.16-.21 1.08-.58 1.32.2.51 0 1.34.24 1.86a.79.79 0 00-.51.14c-.22-1.14-1.22-.6-.89-2.23-.9-1.06-.87.55-2-.11 0 .81-.58 1-1.23 1.11.5-1 .47-2.07 1.3-2.45 0 0 1 .88.68-.13-.07-.5-.27.24-.51.14-.37-1.17.47-1.45 0-2.36.09.56-.35.24-.34 0 .9-.3 1.8-1 2.7-.19 0-.34.25-.32.37-.49-1.17-.22-.85-.58-1.13-1.07-.33.22-2.28.45-2.32-.62 0 .21 1 .26.5 0a.45.45 0 01-.48-.36c.11-.34.51-.52.21-.83a1.33 1.33 0 001-.28c-.23-.47-2.13.55-2-.61.32.38.63.1.53-.48.4.32.76-.6 1.06-.95-.7-.06-.93.28-.72.8-.31 0-.38.17-.68.13.38-.64.88-1.15 1.27-1.78-1 .1-1.11 1.13-1.61 1.77a4.45 4.45 0 011.86-3.27.54.54 0 01-.29-.86c-1.23-.24-1.5.58-2.56.54.09-.31.39-.4.39-.82-.52 0-.68.32-1 .45 0-1.25-1.51.47-2-.61.68 0 1.54.17 1.71-.41-.86-.7.07-1.43.45-2.17-.51-.15-.51.26-1 .12-.22.43.27 1-.05 1s-.13-.63-.47-.7c-.19.51-.44-.21-.66-.2a1.42 1.42 0 01-.93 1.64c0-.17-.12-.21-.15-.35.42.1.82-.72.39-1 .19 1.2-.91.74-1.37.44 0 .33-.24.32-.36.48a1.2 1.2 0 011 .73c-1.11.14-1.7.93-2.57.87.79.23-.7.67-1 .79-.6-.76-.2-1.55-.22-2.2.37-.12 2.49-.34 2 .27.54.24.16-.54.69-.3-.31-.57-1-1.37-.58-1.71a34.23 34.23 0 017.23 0c.17-.84-.63.19-.65-.37 1.07-1 2 .31 3.17.5-.15-.71-1.31-.53-1.63-1.09 1.16.13.7.2 1.2-.28 1.15.46 2 1.16 3.11 1.68.09.64-.66.33-.72.8.51.26 1 .83.44 1.21.56.29.76-.68 1-.12-.13 0-.33 0-.34.15.3.31 1.38-.08 1.13.73 1-.29 1.58.73 2 1.45.56-.35 1.36.12 2.53-.2a.82.82 0 01.2-.5c-.86.12-.75-.52-.69-1.17zM111.51 63c-.2.66.93.12.8.71.33 0 .24-.44.69-.3-.07-.15-.13-.31-.32-.35.07-.22.43-.12.68-.13.09.57-.31.59-.71.63.56.38-.2 1.1.45 1.2.1.59-.23.7-.39 1-.49-.25-.64-.81-1.13-1.07a1.92 1.92 0 00.07-1.17c-.29.23 0 .65-.23 1.17-.26-.09-.12-.54-.66-.37.21-.62-.32-.56-.45-.87-.35.16.6 1.24-.56 1 .12-.72.25-1.86 1.76-1.45zm45.14-13.79s.19-.32.19-.33c-.24-.54-3.29-.33-4.2-.22-.2-.43.69-.49.2-.66a2.92 2.92 0 01-1.54.59c-.3-.37-.22-1.08-.6-1.37a9.27 9.27 0 01.23 2c-.38-.07-.63 0-.69.3.44.39.38.94.59 1.54.4-2.24 2.72-.49 3.95-1.47-.4-.13-1.23.14-1.34-.24 1.09-.31 2.81.07 3.54 0 1.85-.08-.08-.06-.33-.13zm-4.55 6.49c-.31-.05-.38.17-.68.14a1 1 0 00-.61-1.05c0-.19.25-.25 0-.33-.6.38.5 1 .11 1.18-.39-.26-.85.38-.4 1.16-1.1.07-1.79.61-2.89.69-.18 0-.15.21.16.18 1-.14 2.28-.74 3-.52-.13-.62.73-.13.87-.46-.45.78.56 1.47.72 2.23.2-.76-.38-.84-.26-1.53.24.05.27.29.49.36a.62.62 0 01.22-1c-.08-.29-1.46.1-.73-1.04zm8.27-41.17c-1.45 1.45-4.35-.74-5.29 1.4 1 0 2 0 1.62 1.27a7.77 7.77 0 002-.4c.7.17 1.43 1.15 2 .94-.5-.13.18-.35 0-.67-.4-.27-1-.39-1.13-.9.31-.66 1.2-.68 1.58-1.26-.61.22-.26-.47-.78-.37zm21.32 9.1c-.42-.15 0-1-.62-1 .62 2.52-2.17 1.85-3.07.85.72-.18.29-.26.21-.83.55.14.56-.32.86-.46a1.69 1.69 0 01-1.32-.41 3.06 3.06 0 00.45-2.16c-.09.72-1.22.8-1.36.26-.53-.11-.68.33-1-.05-.09.56.73.3.45 1-1.77 0-3.69 1.05-5-.09a2.1 2.1 0 01-2.12 1.9c-.16.57.6.31.63.71a12.75 12.75 0 00-.9 1.13c.83-.19.43-.39.67.21.16-.29.64-.44.67 0-.6.64-1 1.46-1.63 2.1-.59-.71-.73-.52-1.12-1.07-.13.83-.13 2.48-1 3 .53.11.41-.49 1-.28a1.8 1.8 0 01.59 1.54c.3-.2.06-1 .56-1 .23.06.27.29.48.36-.07-.77-.15-.69.53-.47 0-.32.21-.36.2-.66-.93-.08-.3-.57-1.13-.74.79-.47 1.09-1.5 2-1.91-.28 1 .68 1.79-.15 2.85.67-.41.66 0 1.18-.11.19-1-.64-3.06.81-2.65.17-.43-.46-.94.07-1.17 1 .64.52-.74 2-.23.15-.61-.78-.25-.8-.72 1.74-.53 3.62.34 3.62 1.71.43-.11.95-.12 1.2-.45-.15-.18-.62-.08-.48-.53.82.22 2 .15 2.31.8-.84-.34-1.44 4.12-1 2.47.49-.28.46-1.14 1.08-1.29.35.07-.27.44.31.52.09-1.35 1.39-2.51 1.82-3.35-.2.25-.88-.07-1 .23zM178.12 14c-1.05-.71-1.44 0-2.54.2-.68-.13-.75-.81-1.46-.92.42.3.28 1.61-.75 1.31-.33.31 1.35.17 1.84.26a14.74 14.74 0 01-1.93 4.78c.78 0 1-1.34 1.28-1.95a7.3 7.3 0 001.15-2.8c1 .44 1.56.16 2.7 0 .13-.57-1.17-.54-.29-.88zm-3.84 24.07a5.67 5.67 0 00-3 0 2.28 2.28 0 011.89-.58v-.67c-1.1.55-2-.21-3.17-.5a4.28 4.28 0 001.27-1.78 3.07 3.07 0 00-1 .61c-.2-.45-.87-.23-.46-.86-.4.08-.31.71-1 .45-.37.69.18 1.42-.58 1.48 0 .2.29.16.49.2a6.76 6.76 0 005.24 2.8c.31-.12-.09-.19-.33-.19-.65-.16-1.2-.41-1.82-.6.25-.68 1.89.08 2.47-.34zm-5.95-1.68c-2.56-1.43-4.2-3.68-8.39-3.64.5.94 2.26.73 3.66.86 1.48.92 3.21 2.46 4.73 2.8z" fill="#1db3ae" fill-rule="evenodd"/><path d="M120.41 47.32c.9.87.45 2.41.14 3.71.71-.69.91-2 1.49-2.78a1.91 1.91 0 01.94 1.39c.61.21.29-.61.86-.46a8.55 8.55 0 01-1.84 3.27 4.26 4.26 0 00-3.31-1.18c-.51-.89-1.3-2.32-.64-3.74a3.53 3.53 0 01.94 1.4c.48-.2.51-.92.4-1.33.22.53 1.15.87 1.02-.28zM115 50.91c1-.49 1.64.75 2.65.81-.27 1.1-1.68-.06-2.38.38.12-.15.43-.6-.14-.51.37-.12.44-.59-.13-.68zM116.59 52.67c-.31.37-1.28 0-1.85.08.15.28.7.21 1 .38-.15.67-1.11.43-1.88.41-.27-.44.29-.64-.3-.69a3.53 3.53 0 013.03-.18zM115.88 63.07c-.2.69-.09.94-.58 1.48-.63-.07-.34-1-1.13-.9.7-.04 1.03-.5 1.71-.58zM116.2 63.25c.57.16 0 1 .25 1.7-1.2.05-.36-1.17-.25-1.7zM115.77 65.08a.79.79 0 00.5.2c0 .44 0 .89-.07 1.34-.15.3-.18-.11-.15-.35s-.17-.1-.17 0c-.37-.1-.03-.83-.11-1.19z" fill="#ce007f" fill-rule="evenodd"/><path d="M126.8 53.71c.26-.18.76-.1.71-.63-.91-.58-1.91.08-2.71.19.44-.7 1.42-.79 1.61-1.76-.58 0-.48-.53-.8-.72-.62.2-.71 1-1.41 1.1 0-.72.82-.51.9-1.13-.88 0-2.13 1.18-2.79 2 1-.11.53.52.13.68a2.27 2.27 0 011.32.41c-.24.81.34.87.44 1.37-.4 1.88-2.38 1.69-3.57.65.13 0 .33 0 .34-.15-.55-.28-.68-.6-1.49-.41.35-.75-.59-.33-.64-.71s.44-.11.36-.48c-.39.1-1.27.36-1.15-.4-.69.12-1.64 1.44-2.22.56.71-.17 2-.64 1.43-1.61a9.88 9.88 0 01-2.94 1.53c-.18 1 .47.75-.07 1.34.78-.24.49.84.28 1 .29.09.45-.22.51 0 0 1.22-1.14 1.23-1.3 2.29.84 0 .66-1.05 1.4-1.11-.18.34-.38.65-.55 1a.79.79 0 00.51-.14c0 .34-.47.19-.37.66.3.17.59-.48.67 0a1.45 1.45 0 01-1.38.6c-.11.74.79.57 1.1.3-.22.26 0 .39 0 .77-.22 0-.23-.23-.5-.19 0 .45.41.59.8.71a7.48 7.48 0 011.28-1.78c-.53.86-.31 1.63-1 2.13.3-.08 1 .26 1-.11-.05-.55 1.12-2 1.82-2.76-.5 1-.7 2.41-1.5 3.11a3.27 3.27 0 01.39 2.21c-.12 1.75 0 .13 0 .17a6.52 6.52 0 011.14-2.63c-.33 1.11-1.08 2.7-.71 4 .31-.2-.32-1.09.56-1 .32.65-.24.92-.26 1.67.81-.21.38.72.44 1.2h1c.39-.71.61-3.87 1.55-4a16.82 16.82 0 01.86-3.49 7.69 7.69 0 00.18 2.87 5.84 5.84 0 00.26-1.66c.76.57 0-.39.7-.47.58.22.22 1.29 1.28 1.07-.11-.53-.63-1.39.41-1.32.35.34.35.87 1 .56-.22-.79.49-.8.59-1.66a1 1 0 01.67.21c-.17-.54.07-.44-.13-.85.74-.07.27-.54 1-.45-.55-.08-.36-1.3.07-1.34-.16-.35-.61-.42-.81-.72.57 0 1.17.11 1.36-.26a3.66 3.66 0 01-.93-1.4c.84.26.2-.48.53-.48.43.24 1.87 1.25 2 .28-1.12-.16-2.57.16-3.37-.82z" fill="#ce007f" fill-rule="evenodd"/><path d="M20.11 90.79a16.13 16.13 0 00-9.27 10 22.66 22.66 0 00-1.1 7 14.16 14.16 0 00.79 5 10.8 10.8 0 002.09 3.51 8.4 8.4 0 003 2.1 9.73 9.73 0 003.63.7 13.66 13.66 0 002.73-.27 9.06 9.06 0 002.52-.91 9.57 9.57 0 002.23-1.7 12.39 12.39 0 001.9-2.62l.18.06c-.08.53-.14 1-.17 1.52l-.05 1.5v1.92h4.06l-.13-.91c0-.35-.05-.77-.05-1.26s0-1.3.07-2.07l.19-2.34.28-2.35.32-2.14 3.15-17.38h-.12c-.39-.11-.89-.22-1.49-.33s-1.5-.23-2.28-.33l-2.29-.25c-.74-.06-1.33-.09-1.75-.09a21.33 21.33 0 00-8.44 1.64zm-4.21 22.47a9.11 9.11 0 01-1.23-2.73 13.14 13.14 0 01-.43-3.43 17.67 17.67 0 011.13-6.58 14.25 14.25 0 012.93-4.68A12.1 12.1 0 0122.37 93a12 12 0 014.55-.94 11.55 11.55 0 012.8.3 10.26 10.26 0 012.1.76h.05L29.34 107a11.23 11.23 0 01-3.15 6.1 9.74 9.74 0 01-2.7 1.89 7.62 7.62 0 01-3.24.71 4.76 4.76 0 01-2.44-.67 6.16 6.16 0 01-1.91-1.77zM54 89.94a21.09 21.09 0 00-4.4 1.83l-.11.06v-2.15h-3.65l-.05.94-.13 1.38-.16 1.23-.15.76c0 .16-5.8 33.5-6.37 36.83v.17h4.12s2.5-14.09 2.57-14.52l.09.06c.68.46 1.33.87 1.93 1.2a13.13 13.13 0 001.8.83 10.39 10.39 0 001.86.5 14.06 14.06 0 002.15.16 12.22 12.22 0 006.12-1.56 14.53 14.53 0 004.66-4.22 20.51 20.51 0 003-6.2 26.49 26.49 0 001-7.47 15.8 15.8 0 00-.53-4.16 9.07 9.07 0 00-1.64-3.32A8 8 0 0063.23 90a10.09 10.09 0 00-4.2-.8 17.69 17.69 0 00-5.03.74zm-4.63 4.83c.75-.37 1.45-.7 2.07-1a12.68 12.68 0 011.86-.62 13 13 0 011.92-.34 21 21 0 012.23-.11 7.55 7.55 0 013.15.57 4.89 4.89 0 012 1.61 6.22 6.22 0 011 2.42 15.08 15.08 0 01.29 3.06 22.33 22.33 0 01-.29 3.5 19.72 19.72 0 01-.88 3.48 17.82 17.82 0 01-1.48 3.19 11.7 11.7 0 01-2.09 2.62 9.41 9.41 0 01-2.72 1.85 8.49 8.49 0 01-3.36.65 14.6 14.6 0 01-1.57-.09 9.49 9.49 0 01-1.72-.37 10 10 0 01-1.78-.79 9 9 0 01-1.79-1.28c0-.16 3.14-18.17 3.17-18.31zM82.66 90.78a15.53 15.53 0 00-4.85 4.14 19.86 19.86 0 00-3.14 6 22.7 22.7 0 00-1.11 7.08 14.86 14.86 0 00.65 4.42 10.18 10.18 0 002 3.58 8.88 8.88 0 003.25 2.33 11.76 11.76 0 004.57.83 21.3 21.3 0 006.61-1 17.57 17.57 0 005.12-2.66l.11-.08-1.87-2.85-.13.08c-.59.39-1.21.76-1.85 1.1a17.8 17.8 0 01-2.39 1 19.92 19.92 0 01-2.63.72 15.14 15.14 0 01-2.78.27 6.23 6.23 0 01-2.87-.62 5.31 5.31 0 01-2-1.78 8.27 8.27 0 01-1.14-2.8 16.6 16.6 0 01-.37-3.55v-.81a4.75 4.75 0 01.09-.71.22.22 0 000-.06h.06c1.49 0 3-.08 4.58-.18a40.62 40.62 0 004.51-.52 26.14 26.14 0 004.1-1 12.87 12.87 0 003.33-1.7 8 8 0 002.24-2.53 7.13 7.13 0 00.91-3.48 5.92 5.92 0 00-2.27-5 10.52 10.52 0 00-6.46-1.74 13 13 0 00-6.27 1.52zm-3 8.43a13.75 13.75 0 012.07-3.34 10.59 10.59 0 012.95-2.43 7.66 7.66 0 013.81-.94 6 6 0 013.75 1 3.5 3.5 0 011.3 2.93 4.39 4.39 0 01-.65 2.39 5.68 5.68 0 01-1.76 1.72 10.72 10.72 0 01-2.6 1.17 21.07 21.07 0 01-3.13.73 33.53 33.53 0 01-3.41.38c-1.16.07-2.31.12-3.41.14h-.08a.55.55 0 010-.09 17.74 17.74 0 011.11-3.66zM112.1 70c-.2.45-.2.45-.53.5h-.32v.09a2.54 2.54 0 00-.09.72 5.49 5.49 0 000 .58 2.81 2.81 0 010 .29l-.44-.13.28.36s.08.12.05.14a.41.41 0 01-.35 0l-.23-.18a2.52 2.52 0 00-.44 1.51 3.6 3.6 0 01-.12.8.15.15 0 00-.06 0 .34.34 0 00-.45.08 1 1 0 00-.06 1.06.37.37 0 00.4.14.24.24 0 00.17 0c-.06.26-.16.46-.24.49s-.09 0-.17-.19l-.27.07a2.31 2.31 0 01-.52 2 .33.33 0 01-.39 0l-.14-.08-.06.15a.75.75 0 00-.07.29.43.43 0 00.25.38c-3.93 13-6.08 28.2-6.23 44.06v.14h4.12v-.14-3a151.87 151.87 0 017.3-46.88.62.62 0 00.5-.13.41.41 0 00.08-.25.17.17 0 000-.07 4 4 0 000-.47 2.5 2.5 0 00-1.82-2.45l-.13-.05z" fill="#1db3ae"/></svg>